<svg width="60" height="60" viewBox="0 0 60 60" fill="none" xmlns="http://www.w3.org/2000/svg">
<path d="M3.06202 21.9801C1.40841 21.9801 0.0678711 23.3206 0.0678711 24.9743V38.9469C0.0678711 40.6005 1.40841 41.9411 3.06202 41.9411C4.71564 41.9411 6.05618 40.6005 6.05618 38.9469V24.9743C6.05618 23.3206 4.71564 21.9801 3.06202 21.9801Z" fill="#FF0043"/>
<path d="M36.9956 21.9801C35.342 21.9801 34.0015 23.3206 34.0015 24.9743V38.9469C34.0015 40.6005 35.342 41.9411 36.9956 41.9411C38.6492 41.9411 39.9898 40.6005 39.9898 38.9469V24.9743C39.9898 23.3206 38.6493 21.9801 36.9956 21.9801Z" fill="#FF0043"/>
<path d="M31.0074 21.9801H9.05033C8.49912 21.9801 8.05225 22.427 8.05225 22.9782V38.9469C8.05178 41.3187 9.72064 43.363 12.0445 43.8374V50.9235C12.0445 52.5772 13.385 53.9177 15.0386 53.9177C16.6922 53.9177 18.0328 52.5772 18.0328 50.9235V43.9372H22.025V50.9235C22.025 52.5772 23.3656 53.9177 25.0192 53.9177C26.6728 53.9177 28.0133 52.5772 28.0133 50.9235V43.8374C30.3372 43.363 32.006 41.3187 32.0056 38.9469V22.9782C32.0055 22.427 31.5586 21.9801 31.0074 21.9801Z" fill="#FF0043"/>
<path d="M27.2849 10.1472L29.7181 7.71593C30.1145 7.33296 30.1255 6.70119 29.7426 6.30465C29.3596 5.90821 28.7278 5.89726 28.3313 6.28014C28.323 6.28819 28.3148 6.29633 28.3068 6.30465L25.4724 9.13918C22.0008 7.63116 18.0591 7.63116 14.5876 9.13918L11.7532 6.30269C11.3567 5.91972 10.7249 5.93076 10.3419 6.3272C9.96836 6.71401 9.96836 7.32716 10.3419 7.71387L12.7731 10.1471C9.80921 12.1083 8.03405 15.4319 8.05239 18.9858C8.05239 19.537 8.49926 19.9839 9.05047 19.9839H31.0076C31.5588 19.9839 32.0057 19.537 32.0057 18.9858C32.0239 15.432 30.2488 12.1084 27.2849 10.1472Z" fill="#FF0043"/>
<circle cx="15.0386" cy="14.9937" r="0.998082" fill="#FAFAFA"/>
<circle cx="25.0191" cy="14.9937" r="0.998082" fill="#FAFAFA"/>
</svg>
