<svg width="60" height="60" viewBox="0 0 60 60" fill="none" xmlns="http://www.w3.org/2000/svg">
<path fill-rule="evenodd" clip-rule="evenodd" d="M22.8722 16.468C21.9428 16.8373 20.9775 17.0307 19.9735 17.004C19.7828 17.0013 19.7095 16.9507 19.6988 16.7493C19.5428 14.8493 20.0522 13.1107 20.9682 11.4733C22.5335 8.67733 24.9148 6.95067 28.0095 6.192C28.2742 6.12535 28.5467 6.09019 28.8345 6.05306C28.9612 6.03671 29.0909 6.01997 29.2242 6C29.2289 6.12721 29.2347 6.24747 29.2404 6.36355C29.2489 6.53944 29.2569 6.70572 29.2602 6.872C29.3268 10.3013 27.1108 14.7853 22.8722 16.468ZM38.913 41.3626C38.9623 41.2177 39.011 41.0749 39.0602 40.936C35.3135 39.072 33.0282 36.2 32.7442 31.9547C32.4628 27.712 34.4002 24.5787 37.8028 22.2067C37.7793 22.1702 37.7455 22.1214 37.7131 22.0747L37.7002 22.056C36.3508 20.1627 34.5642 18.8627 32.3682 18.128C30.8188 17.6093 29.2268 17.3973 27.5948 17.5293C26.5042 17.616 25.4588 17.9227 24.4308 18.2973C23.4282 18.6693 22.4282 19.0493 21.4295 19.4307C20.5268 19.776 19.6295 19.776 18.7282 19.4373C17.7495 19.0707 16.7722 18.7013 15.7975 18.328C13.9455 17.6147 12.0562 17.428 10.1135 17.8853C6.88415 18.6413 4.42949 20.4747 2.68949 23.2733C1.30282 25.5 0.700152 27.9707 0.546819 30.5653C0.416152 32.7293 0.629486 34.864 1.07482 36.9813C2.10815 41.9053 4.24815 46.3013 7.43615 50.1893C8.10949 51.008 8.82949 51.7813 9.68682 52.416C10.3775 52.9267 11.1215 53.3227 11.9722 53.4813C12.9468 53.6653 13.9042 53.54 14.8268 53.2307C15.3817 53.0438 15.9243 52.8214 16.4668 52.5989C16.7025 52.5023 16.9382 52.4057 17.1748 52.312C19.3415 51.456 21.5322 51.3507 23.7348 52.1507C24.1744 52.3104 24.6056 52.4948 25.0367 52.6792C25.2712 52.7794 25.5057 52.8797 25.7415 52.976C26.6655 53.352 27.6242 53.5333 28.6228 53.5013C29.9522 53.4547 31.1015 52.944 32.1002 52.0987C32.6055 51.6733 33.0948 51.2147 33.5148 50.708C35.6908 48.1053 37.4842 45.2653 38.6655 42.0667C38.7533 41.8319 38.8341 41.5946 38.913 41.3626Z" fill="#FF0043"/>
</svg>
